PathFileType	4	(X/Y/Z)	C:/Users/opensim2020/Desktop/walking_exp_matlab/subject02_walking15_straight_04.trc	
DataRate	CameraRate	NumFrames	NumMarkers	Units	OrigDataRate	OrigDataStartFrame	OrigNumFrames	
100.00	100.00	6	42	mm	100.00	1755	152	
Frame#	Time	LFHD			RFHD			LBHD			RBHD			C7			T10			CLAV			STRN			RBAK			LSHO			LUPA			LELB			LFRM			LWRA			LWRB			LFIN			RSHO			RUPA			RELB			RFRM			RWRA			RWRB			RFIN			LASI			RASI			LPSI			RPSI			LTHI			LKNE			LTIB			LANK			LHEE			LTOE			RTHI			RKNE			RTIB			RANK			RHEE			RTOE			*39			*40			*41			
		X1	Y1	Z1	X2	Y2	Z2	X3	Y3	Z3	X4	Y4	Z4	X5	Y5	Z5	X6	Y6	Z6	X7	Y7	Z7	X8	Y8	Z8	X9	Y9	Z9	X10	Y10	Z10	X11	Y11	Z11	X12	Y12	Z12	X13	Y13	Z13	X14	Y14	Z14	X15	Y15	Z15	X16	Y16	Z16	X17	Y17	Z17	X18	Y18	Z18	X19	Y19	Z19	X20	Y20	Z20	X21	Y21	Z21	X22	Y22	Z22	X23	Y23	Z23	X24	Y24	Z24	X25	Y25	Z25	X26	Y26	Z26	X27	Y27	Z27	X28	Y28	Z28	X29	Y29	Z29	X30	Y30	Z30	X31	Y31	Z31	X32	Y32	Z32	X33	Y33	Z33	X34	Y34	Z34	X35	Y35	Z35	X36	Y36	Z36	X37	Y37	Z37	X38	Y38	Z38	X39	Y39	Z39	X40	Y40	Z40	X41	Y41	Z41	X42	Y42	Z42	

77	0.760	-1045.67139	65.15326	1748.55225	-1189.03870	63.61197	1731.36633	-1037.34265	186.71460	1660.10730	-1180.98315	197.49010	1640.25757	-1110.67261	232.75281	1520.10706	-1130.70496	271.09973	1243.88538	-1098.30457	89.86324	1458.50891	-1107.30359	29.30693	1289.32971	-1179.90979	280.76764	1344.87817	-930.40601	166.95697	1495.00989	-849.58667	169.73523	1295.67444	-835.59082	157.09306	1151.68494	-844.26062	89.46879	1033.76990	-895.65942	-14.84841	958.09741	-864.07751	24.77186	932.20844	-867.01593	-23.82839	888.43555	-1295.49780	155.45442	1494.42468	-1384.51587	193.76517	1307.62451	-1409.39600	187.69115	1163.74023	-1438.64587	170.51273	1047.85059	-1432.60754	135.20564	915.44617	-1462.37012	182.88696	920.10254	-1472.97876	153.62073	854.76990	-988.66864	64.89874	973.00232	-1240.80090	25.17531	984.33203	-1099.16565	255.70676	1030.34009	-1213.50317	244.51749	1039.71765	-948.86774	109.61275	658.90509	-969.07269	113.37434	479.72964	-994.28900	265.90707	384.46649	-1038.48230	412.55374	222.08398	-1100.59399	441.61017	219.97879	-996.77094	346.49829	87.36414	-1326.07947	65.24362	679.48669	-1287.39319	57.33574	469.03241	-1306.54602	100.25513	285.16144	-1276.15186	133.78227	93.82234	-1229.08191	179.48535	41.06275	-1268.75635	-17.25666	38.17712	-1134.94788	173.99155	1802.76343	-3360.44629	2845.29663	1034.31921			 
78	0.770	-1044.88147	51.44328	1750.72021	-1188.31982	49.81762	1733.61865	-1037.21094	173.16560	1662.56482	-1181.38049	184.05843	1642.97424	-1110.85425	218.91353	1522.48560	-1132.07922	257.64713	1246.44043	-1097.50085	76.25493	1460.81372	-1106.64307	15.96421	1291.57410	-1181.17920	266.70346	1347.52795	-930.36188	154.84879	1497.06360	-849.65558	159.49814	1297.79907	-835.64734	149.36603	1153.75842	-842.40582	85.85961	1033.51147	-891.95264	-16.22579	952.79895	-860.66083	24.35349	929.35522	-863.12061	-21.67706	882.95874	-1295.05725	140.11996	1497.67737	-1385.89648	174.28171	1310.86951	-1411.14697	165.74423	1166.95508	-1440.11719	144.58122	1051.52295	-1433.88794	104.72160	920.69940	-1463.97424	152.60037	923.49823	-1474.67993	120.08013	859.73285	-987.86664	52.83019	977.07898	-1240.91589	12.88060	985.73718	-1100.41162	242.58530	1033.39368	-1214.75305	231.28734	1042.20996	-948.14355	89.87868	662.80768	-969.76971	87.89301	483.65149	-996.00818	237.21935	383.80606	-1040.08167	377.90915	216.00450	-1102.27454	407.36813	212.33154	-996.38904	305.39072	85.69486	-1326.14856	59.01387	679.69440	-1287.88232	56.06643	469.00864	-1306.62842	100.78803	285.53473	-1275.99329	133.87567	94.02890	-1228.87463	179.49290	41.20222	-1268.77368	-17.20254	38.16445	-1134.92810	160.16046	1805.16370	-3360.37964	2845.31909	1034.26294			 
79	0.780	-1043.94604	37.78833	1752.48535	-1187.29712	36.03121	1735.62268	-1036.77368	159.37184	1664.65674	-1180.62268	170.38914	1645.18579	-1110.98083	205.14784	1524.54834	-1133.50110	244.20895	1248.85254	-1096.64844	62.60389	1462.80457	-1106.05811	2.55791	1293.43945	-1182.43262	252.71043	1350.37073	-930.26044	142.58101	1498.71008	-849.62451	149.55637	1299.46704	-835.37976	141.66051	1155.52209	-840.45514	82.57084	1033.14478	-888.21771	-16.87276	947.99371	-856.88983	24.56249	926.25366	-858.96198	-18.84546	877.91357	-1294.19006	125.15379	1500.65796	-1387.03345	154.87375	1313.93481	-1412.80188	143.72557	1170.08801	-1441.31335	118.58665	1055.24670	-1434.89270	74.04359	926.11530	-1465.12158	121.90173	926.91534	-1476.05627	86.45700	864.98334	-987.74414	40.07218	981.02094	-1241.46643	0.45091	987.02045	-1101.16394	229.37920	1035.91479	-1215.69849	218.15950	1044.39746	-947.34174	70.36128	666.73938	-970.16376	62.93254	487.52155	-997.27838	208.49474	382.15460	-1041.55176	342.35355	208.67258	-1103.75610	371.60773	203.15704	-996.70612	263.46579	82.84441	-1326.09363	52.37709	679.66431	-1288.46277	54.81212	468.96674	-1306.92590	100.89436	285.89587	-1275.82800	133.90872	94.21190	-1228.59375	179.47679	41.32991	-1268.80347	-17.16983	38.13843	-1133.56299	146.15561	1807.37134	-3357.38184	2846.04297	1034.34058			 
80	0.790	-1043.43982	23.59348	1753.84436	-1186.36438	22.07049	1737.16370	-1035.95044	145.91002	1666.31201	-1179.15625	156.35895	1646.68872	-1110.96582	191.31534	1526.24011	-1134.92773	230.85664	1250.89966	-1095.88696	48.92013	1464.44849	-1105.48779	-10.78302	1294.96228	-1184.21936	238.81876	1352.64819	-930.11047	130.22968	1499.99768	-849.56000	140.11720	1301.02344	-835.08588	134.25107	1157.09424	-838.35663	79.40846	1032.72156	-884.28394	-17.29216	942.98865	-853.22693	25.39939	923.59338	-854.80493	-16.20896	872.75745	-1293.44312	110.17332	1503.34277	-1387.89758	135.56094	1316.78333	-1414.47375	121.66265	1173.10168	-1442.60339	92.30741	1058.97717	-1435.63928	43.36429	931.91351	-1466.15466	90.85934	930.53534	-1477.01648	52.67841	870.41388	-988.45557	26.67063	984.83362	-1242.13501	-11.52622	987.92535	-1101.56775	216.45389	1038.05737	-1216.32458	205.08061	1046.25049	-946.65533	50.84995	670.71375	-970.33405	38.41595	491.06509	-998.19250	179.91733	379.52560	-1042.93103	305.85724	200.36955	-1105.17419	334.89453	193.05165	-997.12012	220.81435	79.27527	-1325.83362	47.21491	679.25653	-1288.60876	53.12048	468.85345	-1306.88513	100.97015	286.19339	-1275.63025	133.90182	94.39497	-1228.53638	179.71269	41.66256	-1268.78552	-17.00284	38.10100	-1132.73633	132.41292	1809.25830						 
81	0.800	-1041.87695	10.31272	1754.94446	-1185.12195	8.27928	1738.54688	-1035.03418	132.40753	1667.44739	-1178.70313	142.64816	1648.40027	-1110.90540	177.52634	1527.53552	-1136.37390	218.12114	1252.83252	-1095.17700	35.10342	1465.58813	-1105.06042	-24.17199	1296.14551	-1185.61499	224.90776	1354.93884	-929.93842	117.70782	1500.81641	-849.22327	130.03896	1301.82642	-834.46198	126.82126	1158.26575	-835.86218	76.05022	1032.12415	-880.56812	-17.19884	937.67480	-849.30341	26.23425	920.84729	-850.58215	-13.07890	868.14368	-1292.69031	95.31519	1505.78284	-1388.98523	116.40829	1319.62061	-1416.05103	99.59548	1175.93958	-1443.62952	66.08327	1062.67737	-1436.16724	12.39926	937.76605	-1466.80566	59.83585	934.31989	-1477.56934	18.91016	876.06989	-989.86761	12.82968	988.22577	-1243.22327	-23.68195	988.57654	-1101.53381	203.51758	1039.67126	-1216.55469	192.05750	1047.70862	-945.35950	31.70022	674.58142	-970.23199	14.38408	494.07504	-998.67029	151.27802	375.93555	-1044.07043	268.40680	191.03525	-1106.19495	296.64987	181.96829	-997.59845	177.29922	75.20749	-1325.91870	41.80026	679.01654	-1288.60840	51.54757	468.65936	-1306.92285	100.46841	286.52496	-1275.75525	133.98199	94.91324	-1228.32654	179.98488	41.91594	-1268.68555	-17.05634	37.96933	-1131.33813	118.43695	1810.34485						 
82	0.810	-1040.60583	-3.45700	1755.62537	-1183.97437	-5.63756	1739.49719	-1034.20447	118.75459	1668.32910	-1177.53833	128.84723	1649.17139	-1110.67603	163.61617	1528.46082	-1137.66882	204.74309	1254.23596	-1094.33582	21.51446	1466.68701	-1104.69250	-37.48953	1296.94336	-1186.71130	211.06082	1356.51477	-929.67334	105.03218	1501.21228	-848.78430	120.80676	1302.65735	-833.83691	119.61127	1159.16223	-833.60034	73.62558	1031.65051	-876.36847	-17.15562	933.16968	-845.31635	27.52009	918.20227	-846.06409	-9.76712	863.72260	-1291.68884	80.52016	1507.58813	-1390.08301	97.37208	1322.24561	-1417.58118	77.60773	1178.59790	-1444.34155	39.96062	1066.32458	-1436.26160	-18.37306	943.70068	-1467.24988	28.59221	938.27979	-1477.83875	-14.84491	881.92712	-991.78168	-1.67041	991.29559	-1244.44897	-35.77576	988.86346	-1101.22266	190.71133	1040.94409	-1216.33740	179.13301	1048.67200	-944.31165	12.66192	678.00977	-969.83533	-9.25150	496.64111	-998.59851	122.15841	371.40036	-1044.94116	230.11397	181.01593	-1107.37805	258.26035	170.23170	-997.84991	132.43781	71.07587	-1325.49585	36.63990	678.90881	-1288.65747	49.70410	468.53387	-1306.75403	99.66147	286.85138	-1275.42493	133.77808	95.06179	-1228.00281	179.91002	42.16724	-1268.77039	-17.08857	38.01558	-1130.50330	104.48944	1811.27100	-3356.99268	2846.04077	1034.22559			 
